<?xml version="1.0" standalone="no"?>
<!DOCTYPE svg PUBLIC "-//W3C//DTD SVG 20010904//EN"
 "http://www.w3.org/TR/2001/REC-SVG-20010904/DTD/svg10.dtd">
<svg version="1.0" xmlns="http://www.w3.org/2000/svg"
 width="260.000000pt" height="260.000000pt" viewBox="0 0 260.000000 260.000000"
 preserveAspectRatio="xMidYMid meet">
<metadata>
Created by potrace 1.14, written by Peter Selinger 2001-2017
</metadata>
<g transform="translate(0.000000,260.000000) scale(0.100000,-0.100000)"
fill="#000000" stroke="none">
<path d="M0 1300 l0 -1300 1300 0 1300 0 0 1300 0 1300 -1300 0 -1300 0 0
-1300z m1700 651 c107 -41 211 -143 246 -242 17 -46 17 -47 72 -52 116 -12
228 -94 283 -205 20 -40 24 -63 24 -147 0 -86 -3 -106 -24 -145 -37 -70 -68
-105 -124 -144 -56 -38 -173 -74 -189 -58 -5 5 -8 35 -6 66 l3 57 53 18 c55
19 114 67 137 111 48 94 14 213 -79 278 -35 24 -50 28 -145 32 l-105 5 -12 68
c-29 155 -133 247 -278 247 -75 0 -116 -13 -172 -52 l-41 -30 -63 32 -63 32
39 40 c81 83 180 120 309 114 50 -2 100 -11 135 -25z m-569 -181 c157 -30 305
-156 355 -302 l15 -46 61 -6 c142 -17 258 -97 320 -224 31 -62 33 -73 33 -172
0 -96 -3 -110 -29 -165 -38 -77 -114 -153 -191 -191 l-60 -29 -540 0 -540 0
-56 28 c-88 43 -143 98 -186 185 -36 73 -38 80 -38 176 0 88 3 108 27 158 46
98 128 174 231 213 31 12 47 24 47 35 0 41 71 158 129 214 116 110 267 155
422 126z"/>
<path d="M914 1619 c-59 -22 -126 -77 -159 -129 -27 -42 -55 -131 -55 -172 0
-15 -1 -28 -3 -28 -27 0 -130 -26 -158 -40 -44 -23 -96 -81 -116 -129 -22 -53
-20 -147 4 -201 24 -55 96 -122 149 -141 31 -11 136 -14 519 -14 549 0 538 -1
618 84 52 55 71 105 70 181 0 65 -19 113 -62 163 -53 59 -110 81 -230 87
l-105 5 -12 67 c-24 128 -101 227 -210 268 -72 26 -180 26 -250 -1z"/>
</g>
</svg>
